<svg width="14" height="15" viewBox="0 0 14 15" fill="none" xmlns="http://www.w3.org/2000/svg">
<path fill-rule="evenodd" clip-rule="evenodd" d="M7 6C7.7956 6 8.5587 5.68393 9.1213 5.12132C9.6839 4.55871 10 3.79565 10 3C10 2.20435 9.6839 1.44129 9.1213 0.87868C8.5587 0.31607 7.7956 0 7 0C6.20435 0 5.44129 0.31607 4.87868 0.87868C4.31607 1.44129 4 2.20435 4 3C4 3.79565 4.31607 4.55871 4.87868 5.12132C5.44129 5.68393 6.20435 6 7 6ZM0 15C0 14.0807 0.18106 13.1705 0.53284 12.3212C0.88463 11.4719 1.40024 10.7003 2.05025 10.0503C2.70026 9.4002 3.47194 8.8846 4.32122 8.5328C5.1705 8.1811 6.08075 8 7 8C7.9193 8 8.8295 8.1811 9.6788 8.5328C10.5281 8.8846 11.2997 9.4002 11.9497 10.0503C12.5998 10.7003 13.1154 11.4719 13.4672 12.3212C13.8189 13.1705 14 14.0807 14 15H0Z" fill="#333333"/>
</svg>
